<svg width="160" height="160" viewBox="0 0 160 160" fill="none" xmlns="http://www.w3.org/2000/svg">
<path d="M65.1897 21.8182C69.3368 14.6349 77.9443 11.6321 85.494 14.2887C89.2891 15.5546 92.654 18.1602 94.8116 21.8974L142.875 105.145C150.682 118.668 146.049 135.959 132.526 143.766C129.822 145.327 126.364 144.401 124.802 141.697L79.9778 64.0582L35.1991 141.617C33.6377 144.322 30.1795 145.248 27.4749 143.687C13.9525 135.88 9.31926 118.588 17.1265 105.066L65.1897 21.8182Z" fill="url(#paint0_linear_1431_22328)"/>
<path d="M80.057 144.518C89.4257 144.518 97.0205 136.923 97.0205 127.554C97.0205 118.186 89.4257 110.591 80.057 110.591C70.6883 110.591 63.0936 118.186 63.0936 127.554C63.0936 136.923 70.6883 144.518 80.057 144.518Z" fill="url(#paint1_linear_1431_22328)"/>
<defs>
<linearGradient id="paint0_linear_1431_22328" x1="146.667" y1="144.525" x2="-11.5834" y2="97.8921" gradientUnits="userSpaceOnUse">
<stop stop-color="#06C149"/>
<stop offset="1" stop-color="#1ADF61"/>
</linearGradient>
<linearGradient id="paint1_linear_1431_22328" x1="146.667" y1="144.525" x2="-11.5834" y2="97.8921" gradientUnits="userSpaceOnUse">
<stop stop-color="#06C149"/>
<stop offset="1" stop-color="#1ADF61"/>
</linearGradient>
</defs>
</svg>
